<?xml version="1.0" encoding="UTF-8" standalone="no"?>
<!DOCTYPE svg PUBLIC "-//W3C//DTD SVG 1.1//EN"
 "http://www.w3.org/Graphics/SVG/1.1/DTD/svg11.dtd">
<!-- Generated by graphviz version 2.26.3 (20100126.1600)
 -->
<!-- Title: _anonymous_0 Pages: 1 -->
<svg width="494pt" height="101pt"
 viewBox="0.00 0.00 494.00 101.00" xmlns="http://www.w3.org/2000/svg" xmlns:xlink="http://www.w3.org/1999/xlink">
<g id="graph1" class="graph" transform="scale(1 1) rotate(0) translate(4 97)">
<title>_anonymous_0</title>
<polygon fill="white" stroke="white" points="-4,5 -4,-97 491,-97 491,5 -4,5"/>
<g id="graph2" class="cluster"><title>cluster_0</title>
<polygon fill="none" stroke="black" points="8,-8 8,-85 113,-85 113,-8 8,-8"/>
<text text-anchor="middle" x="60.5" y="-68.4" font-family="Times Roman,serif" font-size="14.00">X can hear Y</text>
</g>
<g id="graph3" class="cluster"><title>cluster_1</title>
<polygon fill="none" stroke="black" points="121,-8 121,-85 354,-85 354,-8 121,-8"/>
<text text-anchor="middle" x="237.5" y="-68.4" font-family="Times Roman,serif" font-size="14.00">X plays after Y (mean ~stddev)</text>
</g>
<g id="graph4" class="cluster"><title>cluster_2</title>
<polygon fill="none" stroke="black" points="362,-8 362,-85 478,-85 478,-8 362,-8"/>
<text text-anchor="middle" x="420" y="-68.4" font-family="Times Roman,serif" font-size="14.00">shortest paths</text>
</g>
<!-- __0__matija -->
<g id="node2" class="node"><title>__0__matija</title>
<ellipse fill="none" stroke="black" cx="60" cy="-34" rx="40.9981" ry="18"/>
<text text-anchor="middle" x="60" y="-29.9" font-family="Times Roman,serif" font-size="14.00">matija</text>
</g>
<!-- __1__matija -->
<g id="node4" class="node"><title>__1__matija</title>
<ellipse fill="none" stroke="black" cx="237" cy="-34" rx="40.9981" ry="18"/>
<text text-anchor="middle" x="237" y="-29.9" font-family="Times Roman,serif" font-size="14.00">matija</text>
</g>
<!-- __2__matija -->
<g id="node6" class="node"><title>__2__matija</title>
<ellipse fill="none" stroke="black" cx="420" cy="-34" rx="40.9981" ry="18"/>
<text text-anchor="middle" x="420" y="-29.9" font-family="Times Roman,serif" font-size="14.00">matija</text>
</g>
</g>
</svg>
