<?xml version="1.0" encoding="UTF-8" standalone="no"?>
<!DOCTYPE svg PUBLIC "-//W3C//DTD SVG 1.1//EN"
 "http://www.w3.org/Graphics/SVG/1.1/DTD/svg11.dtd">
<!-- Generated by graphviz version 2.26.3 (20100126.1600)
 -->
<!-- Title: _anonymous_0 Pages: 1 -->
<svg width="496pt" height="191pt"
 viewBox="0.00 0.00 496.00 191.00" xmlns="http://www.w3.org/2000/svg" xmlns:xlink="http://www.w3.org/1999/xlink">
<g id="graph1" class="graph" transform="scale(1 1) rotate(0) translate(4 187)">
<title>_anonymous_0</title>
<polygon fill="white" stroke="white" points="-4,5 -4,-187 493,-187 493,5 -4,5"/>
<g id="graph2" class="cluster"><title>cluster_0</title>
<polygon fill="none" stroke="black" points="8,-8 8,-175 115,-175 115,-8 8,-8"/>
<text text-anchor="middle" x="61.5" y="-158.4" font-family="Times Roman,serif" font-size="14.00">X can hear Y</text>
</g>
<g id="graph3" class="cluster"><title>cluster_1</title>
<polygon fill="none" stroke="black" points="123,-8 123,-175 356,-175 356,-8 123,-8"/>
<text text-anchor="middle" x="239.5" y="-158.4" font-family="Times Roman,serif" font-size="14.00">X plays after Y (mean ~stddev)</text>
</g>
<g id="graph4" class="cluster"><title>cluster_2</title>
<polygon fill="none" stroke="black" points="364,-8 364,-175 480,-175 480,-8 364,-8"/>
<text text-anchor="middle" x="422" y="-158.4" font-family="Times Roman,serif" font-size="14.00">shortest paths</text>
</g>
<!-- __0__ruza -->
<g id="node2" class="node"><title>__0__ruza</title>
<ellipse fill="none" stroke="black" cx="50" cy="-124" rx="32.8565" ry="18"/>
<text text-anchor="middle" x="50" y="-119.9" font-family="Times Roman,serif" font-size="14.00">ruza</text>
</g>
<!-- __0__ruza&#45;&gt;__0__ruza -->
<g id="edge3" class="edge"><title>__0__ruza&#45;&gt;__0__ruza</title>
<path fill="none" stroke="black" d="M79.6045,-132.209C91.2627,-132.623 101,-129.887 101,-124 101,-119.953 96.3976,-117.395 89.7327,-116.326"/>
<polygon fill="black" stroke="black" points="89.7752,-112.823 79.6045,-115.791 89.406,-119.813 89.7752,-112.823"/>
<text text-anchor="middle" x="103.5" y="-119.9" font-family="Times Roman,serif" font-size="14.00"> </text>
</g>
<!-- __0__nada -->
<g id="node3" class="node"><title>__0__nada</title>
<ellipse fill="none" stroke="black" cx="50" cy="-34" rx="34.2406" ry="18"/>
<text text-anchor="middle" x="50" y="-29.9" font-family="Times Roman,serif" font-size="14.00">nada</text>
</g>
<!-- __0__ruza&#45;&gt;__0__nada -->
<g id="edge5" class="edge"><title>__0__ruza&#45;&gt;__0__nada</title>
<path fill="none" stroke="black" d="M48.1791,-105.704C47.6947,-100.036 47.2398,-93.7649 47,-88 46.6675,-80.0069 46.6675,-77.9931 47,-70 47.1012,-67.5679 47.2406,-65.0458 47.4044,-62.5168"/>
<polygon fill="black" stroke="black" points="50.9132,-62.5317 48.1791,-52.2957 43.9332,-62.0026 50.9132,-62.5317"/>
<text text-anchor="middle" x="49.5" y="-74.9" font-family="Times Roman,serif" font-size="14.00"> </text>
</g>
<!-- __0__nada&#45;&gt;__0__ruza -->
<g id="edge7" class="edge"><title>__0__nada&#45;&gt;__0__ruza</title>
<path fill="none" stroke="black" d="M50,-52.1858C50,-64.6224 50,-81.3601 50,-95.5481"/>
<polygon fill="black" stroke="black" points="46.5001,-95.7871 50,-105.787 53.5001,-95.7872 46.5001,-95.7871"/>
<text text-anchor="middle" x="52.5" y="-74.9" font-family="Times Roman,serif" font-size="14.00"> </text>
</g>
<!-- __0__nada&#45;&gt;__0__nada -->
<g id="edge9" class="edge"><title>__0__nada&#45;&gt;__0__nada</title>
<path fill="none" stroke="black" d="M80.4449,-42.2178C92.2161,-42.583 102,-39.8438 102,-34 102,-29.9824 97.3756,-27.4322 90.6603,-26.3493"/>
<polygon fill="black" stroke="black" points="90.6236,-22.842 80.4449,-25.7822 90.2355,-29.8312 90.6236,-22.842"/>
<text text-anchor="middle" x="104.5" y="-29.9" font-family="Times Roman,serif" font-size="14.00"> </text>
</g>
<!-- __1__ruza -->
<g id="node9" class="node"><title>__1__ruza</title>
<ellipse fill="none" stroke="black" cx="229" cy="-124" rx="32.8565" ry="18"/>
<text text-anchor="middle" x="229" y="-119.9" font-family="Times Roman,serif" font-size="14.00">ruza</text>
</g>
<!-- __1__nada -->
<g id="node10" class="node"><title>__1__nada</title>
<ellipse fill="none" stroke="black" cx="229" cy="-34" rx="34.2406" ry="18"/>
<text text-anchor="middle" x="229" y="-29.9" font-family="Times Roman,serif" font-size="14.00">nada</text>
</g>
<!-- __1__ruza&#45;&gt;__1__nada -->
<g id="edge12" class="edge"><title>__1__ruza&#45;&gt;__1__nada</title>
<path fill="none" stroke="black" d="M229,-105.787C229,-93.3443 229,-76.6053 229,-62.4211"/>
<polygon fill="black" stroke="black" points="232.5,-62.1857 229,-52.1858 225.5,-62.1858 232.5,-62.1857"/>
<text text-anchor="middle" x="256.5" y="-74.9" font-family="Times Roman,serif" font-size="14.00">22 (~6)</text>
</g>
<!-- __2__ruza -->
<g id="node13" class="node"><title>__2__ruza</title>
<ellipse fill="none" stroke="black" cx="411" cy="-124" rx="32.8565" ry="18"/>
<text text-anchor="middle" x="411" y="-119.9" font-family="Times Roman,serif" font-size="14.00">ruza</text>
</g>
<!-- __2__nada -->
<g id="node14" class="node"><title>__2__nada</title>
<ellipse fill="none" stroke="black" cx="411" cy="-34" rx="34.2406" ry="18"/>
<text text-anchor="middle" x="411" y="-29.9" font-family="Times Roman,serif" font-size="14.00">nada</text>
</g>
<!-- __2__ruza&#45;&gt;__2__nada -->
<g id="edge15" class="edge"><title>__2__ruza&#45;&gt;__2__nada</title>
<path fill="none" stroke="black" d="M411,-105.787C411,-93.3443 411,-76.6053 411,-62.4211"/>
<polygon fill="black" stroke="black" points="414.5,-62.1857 411,-52.1858 407.5,-62.1858 414.5,-62.1857"/>
<text text-anchor="middle" x="438.5" y="-74.9" font-family="Times Roman,serif" font-size="14.00">22 (~6)</text>
</g>
</g>
</svg>
